# xmcd CD database file
#
# Track frame offsets:
#	150
#	13599
#	37361
#	65230
#	79275
#	97292
#	120418
#	122956
#	145682
#	161361
#	181768
#	203124
#	226180
#	247837
#	265815
#	276889
#	296919
#	314318
#
# Disc length: 4487 seconds
#
# Revision: 0
# Processed by: cddbd v1.5.2PL0 Copyright (c) Steve Scherf et al.
# Submitted via: CDex 1.51
#
DISCID=0a118512
DTITLE=Klazz Brothers and Cuba Percussion - Mozart meets Cuba
DYEAR=2005
DGENRE=Jazz
TTITLE0=Guantanameritmo
TTITLE1=Salzburger Schafferl
TTITLE2=Calypso Facile
TTITLE3=Poema con cohiba
TTITLE4=Kubanischer Marsch
TTITLE5=Afrolero
TTITLE6=Don Cajon
TTITLE7=Don Muerte
TTITLE8=Sonatadur
TTITLE9=Wenn Son, Danzon
TTITLE10=Reich mir die Hand
TTITLE11=Tercero de la Noche
TTITLE12=Yo siento mucho
TTITLE13=Bomba de la noche
TTITLE14=Hasta la vista Mozart
TTITLE15=Son de Mozart
TTITLE16=Mozartbique
TTITLE17=Ham and Figo
EXTD=YEAR: 2005
EXTT0=
EXTT1=
EXTT2=
EXTT3=
EXTT4=
EXTT5=
EXTT6=
EXTT7=
EXTT8=
EXTT9=
EXTT10=
EXTT11=
EXTT12=
EXTT13=
EXTT14=
EXTT15=
EXTT16=
EXTT17=
PLAYORDER=
